<?xml version="1.0" standalone="no"?>
<!DOCTYPE svg PUBLIC "-//W3C//DTD SVG 20010904//EN"
 "http://www.w3.org/TR/2001/REC-SVG-20010904/DTD/svg10.dtd">
<svg version="1.0" xmlns="http://www.w3.org/2000/svg"
 width="900.000000pt" height="1180.000000pt" viewBox="0 0 900.000000 1180.000000"
 preserveAspectRatio="xMidYMid meet">

<g transform="translate(0.000000,1180.000000) scale(0.100000,-0.100000)"
fill="#000000" stroke="none">
<path d="M4450 10230 l0 -611 -49 7 c-63 8 -183 -16 -310 -62 -53 -20 -140
-51 -194 -70 l-97 -34 -220 0 -220 0 0 570 0 571 -112 -3 -113 -3 0 -670 0
-670 572 -3 571 -3 42 60 c83 118 189 155 289 101 40 -21 92 -73 118 -117 l25
-43 569 0 c447 0 571 3 574 13 3 6 6 308 7 669 l3 656 -26 4 c-15 2 -67 4
-115 4 l-89 -1 -3 -568 -2 -569 -238 5 -237 4 -85 33 c-252 99 -401 137 -486
124 l-44 -6 0 611 c0 336 -4 611 -8 611 -5 0 -19 -11 -32 -25 l-24 -25 -26 25
c-14 14 -29 25 -33 25 -4 0 -7 -275 -7 -610z"/>
<path d="M1196 8743 c-18 -90 -30 -262 -31 -423 l0 -186 38 -76 c66 -135 162
-244 402 -458 69 -61 264 -211 423 -324 84 -60 151 -110 149 -113 -9 -9 -322
79 -452 127 -354 131 -593 282 -676 428 -13 23 -28 42 -33 42 -12 0 1 -267 20
-400 28 -209 67 -305 150 -379 94 -83 208 -144 819 -441 l210 -102 -33 -14
c-138 -59 -411 -56 -642 7 -168 46 -371 141 -442 206 -18 18 -32 23 -47 18
-26 -8 -26 -8 5 -91 113 -304 198 -463 282 -529 98 -77 262 -138 442 -165 80
-12 344 -15 475 -5 l80 6 -76 -73 c-293 -283 -719 -418 -975 -307 -26 11 -49
17 -51 15 -15 -15 50 -231 91 -300 117 -200 384 -260 696 -156 94 31 251 109
358 179 l93 61 -28 -48 c-147 -256 -333 -387 -616 -432 -98 -16 -266 -8 -364
18 -47 12 -73 15 -73 8 0 -19 126 -199 199 -283 78 -90 159 -157 236 -193 74
-36 209 -34 320 4 211 72 454 245 705 500 47 47 88 86 92 86 13 0 -33 -144
-72 -222 -53 -106 -90 -158 -169 -239 -78 -78 -176 -144 -283 -189 -61 -26
-78 -37 -78 -53 0 -19 5 -20 108 -14 341 18 656 152 874 371 114 115 218 279
262 413 l17 52 -29 43 c-37 54 -66 112 -93 183 -11 30 -26 55 -33 55 -7 0 -28
-12 -47 -26 -41 -31 -108 -66 -209 -109 l-76 -33 -81 77 c-107 101 -168 199
-205 329 -8 27 -13 32 -41 32 -76 0 -244 73 -287 125 -25 30 -2 191 44 295 5
12 -5 21 -36 37 -61 29 -208 142 -208 160 0 20 35 87 87 166 l45 67 -82 76
c-90 85 -135 152 -125 184 11 33 105 144 171 201 l62 52 -32 51 c-35 55 -85
158 -107 220 l-14 38 55 50 c30 26 94 68 142 92 47 24 84 47 80 50 -3 4 -8 65
-11 137 l-6 131 -40 22 c-297 159 -630 369 -855 537 -164 123 -355 312 -399
397 -36 69 -65 83 -75 35z"/>
<path d="M7738 8708 c-45 -88 -236 -277 -408 -405 -221 -165 -486 -332 -770
-488 -58 -31 -108 -60 -111 -63 -4 -4 -9 -68 -11 -143 l-4 -136 71 -36 c86
-42 201 -132 197 -154 -7 -33 -84 -197 -116 -248 l-35 -54 37 -28 c61 -46 149
-140 178 -189 l28 -47 -24 -44 c-13 -24 -61 -80 -107 -123 -86 -82 -88 -85
-52 -125 10 -11 38 -58 63 -105 l45 -84 -41 -36 c-71 -60 -135 -106 -178 -125
-30 -14 -39 -23 -34 -34 34 -82 48 -138 52 -208 l4 -81 -43 -32 c-67 -50 -167
-92 -231 -97 l-57 -6 -20 -66 c-11 -36 -37 -95 -58 -131 -43 -73 -195 -230
-224 -230 -28 0 -229 97 -271 130 -20 17 -43 30 -52 30 -8 0 -24 -27 -40 -68
-15 -37 -46 -102 -71 -144 l-45 -75 30 -79 c165 -433 596 -720 1128 -751 96
-6 102 -5 102 13 0 14 -26 31 -105 68 -189 88 -327 222 -421 411 -41 83 -90
225 -77 225 3 0 70 -63 149 -139 284 -276 546 -439 754 -472 143 -22 239 12
369 129 91 81 294 352 278 368 -3 3 -39 -2 -79 -11 -102 -24 -249 -30 -349
-15 -277 40 -479 181 -623 434 -30 51 -28 51 44 1 75 -52 207 -124 292 -161
121 -52 220 -75 343 -81 230 -11 373 64 460 242 32 65 74 206 75 249 0 14 -4
16 -17 11 -116 -50 -224 -64 -354 -46 -162 24 -323 90 -489 202 -81 55 -240
193 -240 208 0 4 30 4 68 0 37 -5 146 -8 242 -8 261 -1 417 29 580 110 124 62
173 117 252 279 74 152 149 339 151 378 3 40 -22 37 -83 -9 -194 -145 -556
-248 -830 -236 -122 5 -267 37 -256 56 3 4 126 65 273 136 664 318 789 398
841 538 46 121 90 456 80 607 l-3 55 -24 -45 c-32 -60 -139 -165 -227 -222
-135 -88 -330 -177 -548 -249 -117 -39 -356 -102 -363 -96 -1 2 66 52 150 112
355 253 585 453 732 635 122 152 140 214 132 460 -5 154 -14 253 -33 368 -8
54 -37 42 -76 -30z"/>
<path d="M4820 8658 c0 -24 15 -35 53 -41 52 -8 69 -24 65 -61 -4 -40 -42 -61
-149 -82 -153 -29 -194 -20 -383 83 -26 14 -59 23 -89 23 -43 0 -53 -4 -85
-37 -36 -36 -41 -37 -196 -64 -278 -49 -338 -76 -390 -181 -35 -69 -35 -137
-1 -205 41 -81 49 -83 78 -20 36 80 73 102 167 102 62 -1 84 -5 128 -28 95
-50 161 -97 225 -160 l62 -62 -60 -6 c-89 -10 -503 -9 -553 0 -52 10 -116 67
-133 118 -8 27 -16 33 -32 31 -19 -3 -22 -10 -25 -60 -5 -89 21 -138 92 -173
l56 -27 341 7 341 8 -7 -24 c-12 -44 -27 -67 -52 -78 -15 -7 -111 -11 -269
-11 -269 0 -269 0 -244 -61 26 -61 75 -72 211 -44 94 19 128 11 151 -36 25
-48 23 -91 -5 -117 -24 -22 -97 -52 -128 -52 -14 0 -19 -7 -19 -25 0 -22 4
-25 38 -25 59 0 165 26 219 54 68 34 108 70 140 124 l27 45 18 -55 c31 -91 76
-126 129 -98 25 14 44 52 59 122 l13 57 29 -46 c67 -105 203 -206 328 -243 71
-21 160 -32 160 -19 0 4 -22 23 -48 42 -141 101 -232 316 -251 596 -17 234 2
277 183 425 60 49 80 93 74 164 -8 98 -79 152 -200 152 -48 0 -68 -4 -68 -12z
m-365 -297 c9 -35 14 -65 11 -68 -4 -4 -26 -10 -47 -12 -4 -1 -10 -16 -13 -34
-9 -47 -46 -79 -91 -79 -43 0 -82 32 -88 72 -4 24 -7 25 -76 22 -68 -2 -71 -1
-71 20 0 20 20 31 173 89 94 36 175 63 179 60 3 -3 14 -35 23 -70z"/>
<path d="M2910 8163 c-41 -90 -90 -225 -112 -306 -18 -66 -22 -109 -23 -222 0
-133 1 -143 29 -202 16 -35 35 -68 42 -74 24 -20 15 -29 -28 -29 -103 -1 -305
-67 -294 -97 13 -32 110 -167 163 -223 61 -66 61 -63 -2 -97 -63 -34 -172
-113 -210 -153 l-40 -42 35 -30 c59 -50 178 -108 274 -132 l49 -13 -59 -43
c-66 -49 -161 -141 -188 -183 -23 -35 -15 -46 66 -82 73 -33 151 -55 195 -55
67 0 67 -8 -3 -84 -65 -71 -117 -162 -128 -223 -5 -29 -2 -34 22 -40 15 -5 65
-8 112 -7 82 0 108 7 226 60 6 3 3 -24 -8 -68 -14 -53 -18 -97 -16 -159 4 -95
22 -136 95 -218 l39 -44 72 37 c82 42 126 92 138 159 4 23 8 157 9 297 1 140
5 278 10 306 l7 50 -43 17 c-88 34 -145 98 -189 212 -19 49 -24 86 -28 203 -2
78 -2 142 1 142 2 0 33 -13 68 -30 88 -41 183 -63 236 -56 133 18 195 108 197
286 0 84 -2 101 -26 145 -36 68 -91 118 -238 216 -268 178 -353 320 -381 630
-5 62 -6 128 -3 147 5 24 3 37 -7 43 -26 17 -38 9 -59 -38z"/>
<path d="M6045 8198 c-2 -7 -6 -67 -10 -133 -10 -204 -45 -330 -121 -446 -58
-88 -113 -138 -275 -247 -146 -98 -200 -149 -230 -217 -59 -134 -14 -332 90
-393 77 -45 200 -33 333 34 26 13 50 24 54 24 3 0 4 -64 2 -142 -4 -118 -9
-154 -28 -203 -42 -111 -106 -182 -186 -210 -36 -12 -39 -16 -36 -47 1 -18 4
-162 6 -320 3 -159 10 -305 16 -327 15 -58 49 -93 132 -136 l72 -38 44 48 c67
75 85 117 90 216 3 65 0 102 -16 157 -11 40 -18 72 -16 72 3 0 27 -11 54 -25
63 -32 169 -50 240 -41 82 10 85 13 66 77 -20 70 -63 138 -137 214 l-59 61 48
2 c26 1 70 7 97 13 66 14 205 79 205 95 0 25 -86 119 -173 189 l-87 70 62 16
c80 20 201 79 253 123 l40 35 -50 51 c-44 45 -213 160 -235 160 -27 0 -15 28
38 85 55 60 144 184 157 217 12 31 -188 97 -292 98 -24 0 -43 2 -43 4 0 3 13
24 29 48 42 63 61 137 61 244 0 113 -18 211 -64 346 -61 184 -115 276 -131
226z"/>
<path d="M4335 7236 c-16 -15 -57 -41 -90 -57 -63 -29 -202 -69 -243 -69 -18
0 -27 -9 -40 -42 -19 -48 -135 -280 -265 -528 -149 -286 -199 -449 -200 -655
-1 -126 13 -210 55 -345 56 -182 131 -320 413 -765 171 -268 237 -392 261
-486 46 -179 -40 -352 -284 -578 -56 -52 -102 -98 -102 -102 0 -15 139 -31
226 -27 138 8 259 66 314 152 l20 31 0 -60 c0 -80 26 -245 44 -290 9 -20 25
-50 37 -66 17 -25 24 -28 36 -18 45 38 78 160 89 326 l7 102 44 -49 c89 -99
244 -145 406 -121 46 7 89 16 95 20 8 5 -37 57 -131 152 -98 99 -156 166 -184
214 -128 218 -97 344 201 805 369 571 468 803 469 1100 1 253 -54 406 -323
905 -38 72 -88 174 -111 227 -41 94 -43 98 -78 103 -148 24 -272 73 -323 127
l-29 31 -15 -22 c-24 -34 -65 -69 -96 -82 -41 -17 -78 -3 -128 49 l-45 47 -30
-29z m240 -305 c61 -35 110 -83 134 -129 10 -19 35 -47 57 -61 57 -39 101
-102 115 -167 11 -48 10 -65 -3 -113 -8 -31 -18 -63 -22 -73 -7 -14 -1 -16 52
-11 101 9 204 -41 247 -121 12 -21 34 -41 57 -52 47 -21 111 -89 140 -149 l22
-45 -22 -45 c-27 -55 -95 -131 -138 -153 -17 -9 -47 -37 -66 -62 -18 -24 -52
-58 -75 -74 -36 -25 -54 -30 -121 -34 -72 -4 -85 -2 -141 25 -34 16 -63 27
-66 25 -3 -3 -5 -47 -5 -99 0 -75 3 -93 15 -93 40 0 135 -182 135 -259 0 -79
-59 -181 -124 -216 -21 -11 -41 -34 -51 -56 -22 -49 -77 -101 -144 -138 l-55
-29 -45 23 c-64 32 -128 90 -151 136 -11 21 -40 52 -65 69 -89 61 -131 179
-101 283 17 60 103 197 124 197 9 0 12 26 12 96 0 53 -3 94 -7 92 -97 -50
-109 -53 -195 -53 -80 0 -89 2 -129 30 -24 17 -59 51 -77 75 -19 25 -55 57
-81 71 -55 32 -69 47 -115 123 l-36 59 32 59 c33 63 103 134 146 149 15 5 36
25 47 46 25 47 93 99 148 114 23 6 68 9 100 6 31 -3 57 -3 57 -1 0 3 -6 20
-14 38 -50 121 -12 252 94 322 23 16 51 47 67 75 14 27 41 61 60 75 42 32 115
74 128 74 6 0 33 -13 60 -29z"/>
<path d="M4476 6760 c-20 -18 -39 -48 -47 -74 -11 -40 -16 -45 -49 -50 -41 -6
-77 -39 -89 -83 -17 -58 12 -120 43 -94 8 7 27 11 43 9 45 -5 53 -35 53 -210
l0 -158 -130 0 c-126 0 -130 1 -145 24 -15 22 -15 27 1 57 15 31 15 33 -2 46
-24 17 -78 17 -114 -2 -32 -16 -60 -61 -60 -94 0 -15 -10 -23 -40 -31 -38 -10
-110 -67 -110 -87 0 -32 93 -103 135 -103 8 0 15 -9 15 -20 0 -29 26 -76 52
-94 26 -18 90 -21 119 -6 18 10 18 13 4 40 -16 31 -8 64 19 82 6 4 66 8 134 8
l122 0 0 -286 c0 -175 -4 -293 -10 -304 -17 -32 -43 -41 -74 -24 -40 20 -44
18 -56 -26 -8 -30 -7 -47 4 -73 17 -43 61 -77 97 -77 23 0 29 -5 29 -20 0 -52
74 -137 109 -125 25 8 60 55 77 104 9 27 19 37 41 42 47 9 74 29 89 64 18 44
18 75 -2 103 -14 21 -17 21 -45 6 -27 -14 -33 -14 -53 0 -13 8 -26 29 -30 47
-3 17 -6 152 -6 300 l0 269 118 0 c90 0 123 -4 140 -16 26 -18 28 -50 5 -77
-17 -18 -17 -19 2 -33 10 -8 38 -14 62 -14 53 0 108 43 117 94 5 27 13 35 44
44 45 14 102 64 102 90 0 26 -58 77 -104 92 -29 9 -37 18 -46 50 -20 73 -111
116 -164 77 -17 -12 -17 -17 -5 -50 11 -32 11 -38 -6 -57 -16 -18 -30 -20
-143 -20 l-124 0 3 168 c4 181 10 202 56 202 13 0 34 -7 47 -16 23 -15 24 -14
36 21 23 69 -16 147 -79 161 -46 10 -51 13 -51 32 0 27 -50 99 -77 111 -19 9
-28 6 -57 -19z"/>
<path d="M3665 4859 c-4 -6 -5 -13 -1 -16 18 -19 -163 -300 -260 -403 -102
-107 -236 -190 -309 -190 -23 0 -55 -23 -55 -40 0 -15 103 -47 176 -55 80 -8
212 11 308 45 33 11 61 18 64 16 2 -3 -9 -35 -24 -73 -27 -62 -29 -78 -29
-193 1 -124 4 -141 47 -263 17 -46 25 -57 40 -55 17 3 20 13 23 108 3 116 28
205 86 309 42 76 131 193 197 261 l54 55 -18 55 c-21 60 -113 227 -201 362
-55 83 -82 104 -98 77z"/>
<path d="M5299 4853 c-77 -94 -269 -434 -269 -478 0 -4 26 -35 58 -69 190
-204 289 -414 280 -599 -3 -59 -1 -68 16 -73 24 -8 30 3 63 106 24 73 28 102
28 205 0 106 -3 129 -27 194 -15 41 -26 76 -25 77 1 2 29 -6 61 -17 105 -34
225 -52 304 -45 74 7 182 40 182 56 0 17 -32 40 -56 40 -70 0 -214 89 -308
192 -102 109 -257 350 -260 401 -1 28 -28 33 -47 10z"/>
<path d="M2073 4119 c-18 -5 -48 -25 -66 -44 -32 -33 -61 -100 -51 -117 7 -12
44 -10 44 2 0 16 62 50 90 50 14 0 39 -9 57 -19 l32 -20 6 29 c7 31 25 50 69
72 34 18 28 22 -50 43 -65 17 -85 17 -131 4z"/>
<path d="M6801 4115 c-73 -21 -78 -26 -45 -43 44 -22 62 -41 69 -73 l6 -28 37
19 c53 29 88 26 124 -10 36 -36 74 -34 62 3 -35 119 -127 167 -253 132z"/>
<path d="M2320 4039 c-39 -16 -79 -60 -86 -93 -11 -62 28 -121 108 -162 52
-26 80 -58 71 -81 -5 -13 -25 -14 -129 -8 -114 6 -127 5 -168 -15 -100 -48
-115 -196 -27 -260 67 -47 147 -40 244 24 77 51 148 71 213 61 76 -11 103 -59
70 -123 -17 -32 -75 -88 -169 -162 -147 -117 -175 -238 -79 -339 69 -73 161
-66 244 19 48 50 54 64 108 265 41 154 89 205 199 212 64 4 68 3 125 -36 51
-36 66 -41 114 -41 50 0 58 3 93 39 34 34 39 44 39 85 0 120 -84 166 -211 116
-56 -23 -113 -19 -123 7 -9 23 10 41 78 75 139 70 269 182 324 278 18 30 32
57 32 60 0 3 -48 6 -107 7 -65 0 -127 7 -156 16 l-47 15 -113 -113 c-92 -92
-126 -119 -189 -150 -68 -33 -84 -37 -133 -33 -88 7 -129 59 -145 187 -5 36
-17 75 -27 89 -42 57 -104 81 -153 61z"/>
<path d="M6616 4040 c-61 -19 -106 -87 -106 -160 0 -48 -22 -102 -54 -137 -29
-32 -40 -37 -90 -41 -51 -4 -65 0 -134 33 -63 31 -97 58 -188 149 l-111 112
-49 -14 c-27 -7 -97 -14 -156 -15 -60 -1 -108 -4 -108 -7 0 -13 67 -117 95
-149 43 -48 162 -135 248 -181 83 -45 100 -60 91 -83 -10 -26 -67 -30 -123 -7
-127 50 -211 4 -211 -116 0 -41 5 -51 39 -85 35 -36 43 -39 93 -39 48 0 63 5
114 41 57 39 61 40 126 36 54 -3 75 -10 102 -31 46 -35 88 -125 115 -247 33
-144 76 -213 156 -250 76 -35 145 -17 194 51 80 110 43 212 -124 345 -133 106
-166 151 -151 208 7 29 36 46 90 53 60 9 139 -16 215 -68 52 -34 73 -43 119
-46 121 -7 200 89 163 201 -30 90 -82 111 -246 102 -104 -6 -123 -5 -128 8 -8
22 19 55 66 78 101 51 142 130 101 197 -33 55 -91 80 -148 62z"/>
<path d="M1913 3546 c-50 -42 -86 -121 -86 -188 1 -63 35 -149 73 -183 18 -16
22 -17 35 -4 12 12 12 20 -1 59 -9 25 -13 58 -10 75 7 32 52 85 73 85 17 0 17
4 -7 50 -11 22 -20 55 -20 73 0 51 -21 63 -57 33z"/>
<path d="M7052 3558 c-7 -7 -12 -26 -12 -42 0 -17 -9 -49 -18 -71 l-18 -39 43
-41 c48 -46 53 -73 29 -143 -13 -35 -13 -42 0 -53 20 -16 47 9 81 79 49 100
31 205 -50 290 -35 36 -38 37 -55 20z"/>
<path d="M5630 3484 c-113 -64 -150 -134 -118 -225 12 -36 66 -109 80 -109 4
0 5 31 2 69 -6 65 -5 71 19 95 14 14 35 26 45 26 28 0 33 10 17 34 -18 24 -19
69 -4 97 18 35 5 39 -41 13z"/>
<path d="M3320 3471 c15 -28 12 -83 -5 -108 -14 -20 -13 -22 20 -33 55 -18 69
-48 62 -132 l-6 -71 29 28 c111 106 86 245 -57 319 -44 22 -56 21 -43 -3z"/>
<path d="M4236 3386 c-53 -27 -70 -31 -160 -34 -93 -3 -202 11 -259 33 -13 5
-18 3 -17 -6 7 -50 -38 -86 -210 -172 -232 -116 -340 -199 -425 -327 -60 -90
-86 -165 -92 -265 -11 -169 47 -323 189 -506 29 -38 55 -69 58 -69 3 0 11 4
19 9 12 8 9 30 -15 138 -36 159 -41 369 -12 464 20 64 61 128 101 159 l28 23
57 -29 c51 -26 67 -29 153 -29 94 0 99 1 180 43 182 92 364 304 444 516 14 38
24 72 23 76 -2 4 -30 -6 -62 -24z"/>
<path d="M4715 3398 c4 -13 18 -53 31 -89 74 -200 276 -422 460 -506 50 -23
73 -27 154 -27 85 -1 101 2 152 27 l58 28 35 -26 c41 -32 89 -124 106 -203 16
-79 5 -283 -22 -402 -33 -147 -33 -146 -13 -154 19 -7 21 -5 95 91 58 77 103
158 135 243 25 67 28 89 28 195 1 100 -3 130 -21 179 -48 127 -162 260 -297
348 -34 22 -120 68 -192 103 -144 69 -214 122 -214 162 0 20 -4 24 -17 18 -46
-18 -156 -35 -228 -35 -99 1 -159 14 -207 45 -46 31 -51 31 -43 3z"/>
<path d="M4367 3086 c-112 -214 -299 -400 -475 -471 -90 -37 -213 -58 -303
-53 -86 5 -92 1 -65 -50 23 -44 69 -81 130 -106 31 -13 56 -27 54 -32 -2 -5
-28 -30 -59 -56 -128 -106 -144 -218 -43 -307 54 -47 90 -57 137 -38 42 18 68
45 118 121 32 48 40 55 45 40 53 -154 146 -230 290 -241 79 -6 97 5 45 27 -50
20 -121 97 -154 168 -29 62 -32 75 -32 167 1 114 24 193 91 312 l38 68 12
-137 c14 -157 41 -274 84 -366 158 -337 426 -230 514 205 9 43 20 128 24 188
l7 110 43 -75 c113 -200 122 -387 27 -525 -19 -28 -53 -64 -75 -80 -95 -69
-95 -67 -8 -61 48 4 95 14 123 27 57 27 128 106 151 167 9 26 20 50 24 55 4 4
18 -14 33 -40 14 -27 43 -65 65 -86 66 -65 135 -66 200 -5 107 102 72 232 -90
341 l-37 25 62 22 c72 26 157 104 157 144 0 23 -2 23 -67 19 -79 -6 -191 9
-272 37 -188 63 -396 255 -506 468 -21 39 -40 72 -43 72 -2 0 -17 -11 -34 -25
-16 -14 -41 -28 -54 -31 -29 -7 -75 10 -100 37 -9 10 -20 19 -23 19 -3 0 -19
-24 -34 -54z"/>
<path d="M2221 2916 c-44 -52 -55 -180 -21 -245 23 -45 115 -131 140 -131 30
0 30 27 -1 66 -48 61 -50 115 -7 161 l21 22 -37 34 c-20 19 -39 48 -42 65 -7
33 -36 48 -53 28z"/>
<path d="M6763 2923 c-6 -2 -21 -24 -33 -49 -12 -24 -32 -52 -44 -62 l-23 -18
23 -34 c13 -19 24 -49 24 -66 0 -28 -39 -100 -62 -115 -14 -9 2 -39 21 -39 36
1 112 73 145 137 22 44 21 146 -3 199 -20 45 -29 54 -48 47z"/>
</g>
</svg>
